<svg width="32" height="32" viewBox="0 0 32 32" fill="none" xmlns="http://www.w3.org/2000/svg">
<circle cx="16" cy="16" r="16" fill="#E7EBFC"/>
<path opacity="0.01" d="M8 8H24V24H8" fill="#2E4FD7"/>
<path d="M19.6664 17.3335C19.2678 18.7202 18.0942 19.7452 16.6664 19.9535C15.5619 20.1137 14.4397 19.8167 13.559 19.1311C12.6783 18.4454 12.1152 17.4303 11.9998 16.3201C11.9103 15.205 12.2918 14.1034 13.0519 13.2825C13.812 12.4616 14.881 11.9966 15.9998 12.0001C16.5183 12.0009 17.0319 12.1004 17.5131 12.2935C17.6701 12.364 17.855 12.3033 17.9398 12.1535L18.8998 10.3868C18.9415 10.3046 18.9488 10.2092 18.92 10.1216C18.8912 10.0341 18.8288 9.96156 18.7464 9.92015C16.6508 8.97132 14.214 9.16999 12.2997 10.4457C10.3854 11.7215 9.26403 13.8941 9.33309 16.1935C9.46924 19.675 12.234 22.4801 15.7131 22.6668C19.3739 22.8292 22.4795 20.0064 22.6664 16.3468V15.0135C22.6629 14.8309 22.5157 14.6837 22.3331 14.6801H16.3331C16.149 14.6801 15.9998 14.8294 15.9998 15.0135V17.0135C15.9998 17.1976 16.149 17.3468 16.3331 17.3468H19.6664" fill="#2E4FD7"/>
</svg>
