<svg width="32" height="32" viewBox="0 0 32 32" fill="none" xmlns="http://www.w3.org/2000/svg">
<circle cx="16" cy="16" r="16" fill="#E7EBFC"/>
<rect opacity="0.01" x="24" y="23" width="16" height="16" transform="rotate(180 24 23)" fill="#2E4FD7"/>
<path d="M18.1002 12.6001C17.0682 12.5966 16.0772 13.0036 15.3456 13.7314C14.6141 14.4593 14.202 15.4482 14.2002 16.4801V20.4001C14.2002 20.5593 14.2634 20.7119 14.3759 20.8244C14.4885 20.9369 14.6411 21.0001 14.8002 21.0001H16.2002C16.5316 21.0001 16.8002 20.7315 16.8002 20.4001V16.4801C16.7999 16.1126 16.9561 15.7623 17.2296 15.5167C17.5031 15.2712 17.8681 15.1537 18.2335 15.1935C18.9042 15.2779 19.4055 15.8509 19.4002 16.5268V20.4001C19.4002 20.7315 19.6688 21.0001 20.0002 21.0001H21.4002C21.7316 21.0001 22.0002 20.7315 22.0002 20.4001V16.4801C21.9984 15.4482 21.5863 14.4593 20.8547 13.7314C20.1232 13.0036 19.1322 12.5966 18.1002 12.6001Z" fill="#2E4FD7"/>
<rect x="10" y="13.2002" width="3" height="7.8" rx="0.9" fill="#2E4FD7"/>
<circle cx="11.5" cy="10.5" r="1.5" fill="#2E4FD7"/>
</svg>
