<svg width="32" height="32" viewBox="0 0 32 32" fill="none" xmlns="http://www.w3.org/2000/svg">
<circle cx="16" cy="16" r="16" fill="#E7EBFC"/>
<path opacity="0.01" d="M7 7H25V25H7" fill="#2E4FD7"/>
<path d="M13.0602 22.0001C15.3008 22.0751 17.4764 21.2408 19.0924 19.687C20.7084 18.1331 21.6273 15.9919 21.6402 13.7501C22.1485 13.1212 22.5259 12.397 22.7502 11.6201C22.7844 11.4947 22.7419 11.3609 22.6415 11.2784C22.5411 11.1958 22.4017 11.1798 22.2852 11.2376C21.74 11.5 21.0881 11.3854 20.6652 10.9526C20.1333 10.3701 19.3882 10.0278 18.5997 10.0038C17.8112 9.97977 17.0466 10.2761 16.4802 10.8251C15.6995 11.5812 15.3721 12.6913 15.6177 13.7501C13.1052 13.9001 11.3802 12.7076 10.0002 11.0726C9.91552 10.9767 9.78209 10.9399 9.6602 10.9789C9.53831 11.0179 9.45101 11.1253 9.43773 11.2526C8.89932 14.2392 10.2754 17.2456 12.8877 18.7901C12.0325 19.771 10.8314 20.3836 9.53523 20.5001C9.39287 20.5237 9.28126 20.6352 9.25754 20.7776C9.23381 20.9199 9.30322 21.0616 9.43023 21.1301C10.5579 21.6936 11.7997 21.9912 13.0602 22.0001Z" fill="#2E4FD7"/>
</svg>
